<?xml version="1.0" encoding="utf-8"?>
<!-- Generator: Adobe Illustrator 21.0.0, SVG Export Plug-In . SVG Version: 6.00 Build 0)  -->
<svg version="1.1" id="Layer_1" xmlns="http://www.w3.org/2000/svg" xmlns:xlink="http://www.w3.org/1999/xlink" x="0px" y="0px"
	 viewBox="0 0 101 29" style="enable-background:new 0 0 101 29;" xml:space="preserve">
<style type="text/css">
	.st0{fill:#ECECEC;}
	.st1{fill:#FAB95B;}
</style>
<g>
	<polygon class="st0" points="6.2,7.9 11.1,7.9 7.8,17.2 3,17.2 	"/>
</g>
<path class="st0" d="M42.3,16.8c0,0.2-0.1,0.3-0.3,0.3c-0.5,0.1-0.9,0.1-1.4,0.1c-0.5,0-1.4,0-2.8,0c-0.2,0-0.3-0.1-0.3-0.3v-6.6
	c0-0.2,0.1-0.3,0.3-0.3h0.9c0.2,0,0.3,0.1,0.3,0.3v5.3c0,0.2,0.1,0.3,0.3,0.3c0.9,0,1.8-0.1,2.5-0.2c0.2,0,0.3,0.1,0.3,0.3
	L42.3,16.8z M45.3,20.4v-5.1c0-0.2-0.1-0.3-0.3-0.3h-0.4c-0.2,0-0.3,0.1-0.3,0.3v4.8c0,0.2-0.1,0.3-0.3,0.3h-0.9
	c-0.2,0-0.3-0.1-0.3-0.3V9.8c0-0.2,0.1-0.3,0.3-0.3H44c0.2,0,0.3,0.1,0.3,0.3v3.7c0,0.2,0.1,0.3,0.3,0.3H45c0.2,0,0.3-0.1,0.3-0.3
	V9.5c0-0.2,0.1-0.3,0.3-0.3h0.9c0.2,0,0.3,0.1,0.3,0.3v10.9c0,0.2-0.1,0.3-0.3,0.3h-0.9C45.4,20.7,45.3,20.6,45.3,20.4z"/>
<path class="st1" d="M57.4,15.4c-1-0.6-1.9-1.2-2.5-2c-0.2-0.2-0.4-0.2-0.6,0c-0.3,0.4-0.6,0.8-1.1,1.2c-0.6,0.5-1.1,0.9-1.6,1.2
	c-0.1,0.1-0.3,0-0.4-0.1l-0.7-0.7c-0.2-0.2-0.1-0.5,0.1-0.6c0.7-0.4,1.4-0.9,2-1.5c0.7-0.8,1-1.7,1-2.5v-0.2h-2.5
	c-0.2,0-0.4-0.2-0.4-0.4V9.1c0-0.2,0.2-0.4,0.4-0.4h6.8c0.2,0,0.4,0.2,0.4,0.4v0.8c0,0.2-0.2,0.4-0.4,0.4h-2.4v0.2
	c0,0.8,0.3,1.6,0.9,2.3c0.5,0.6,1.2,1,2,1.3c0.2,0.1,0.3,0.4,0.2,0.6l-0.6,0.8C57.8,15.5,57.6,15.5,57.4,15.4z M53,21.4v-4.8
	c0-0.2,0.2-0.4,0.4-0.4h1c0.2,0,0.4,0.2,0.4,0.4v0.7c0,0.2,0.2,0.4,0.4,0.4h4.7c0.2,0,0.4-0.2,0.4-0.4v-0.7c0-0.2,0.2-0.4,0.4-0.4h1
	c0.2,0,0.4,0.2,0.4,0.4v4.8c0,0.2-0.2,0.4-0.4,0.4h-8.3C53.1,21.8,53,21.6,53,21.4z M60.2,19.2h-5.5v1.2h5.5V19.2z M60.2,15.3V8.5
	c0-0.2,0.2-0.4,0.4-0.4h1.1c0.2,0,0.4,0.2,0.4,0.4v6.8c0,0.2-0.2,0.4-0.4,0.4h-1.1C60.4,15.6,60.2,15.5,60.2,15.3z"/>
<g>
	<path class="st0" d="M68.8,20.7v-4.5c0-0.2-0.1-0.3-0.3-0.3h-4c-0.2,0-0.3-0.1-0.3-0.3v-0.7c0-0.2,0.1-0.3,0.3-0.3H67
		c0.1,0,0.3-0.1,0.3-0.2c0.1-0.8,0.2-1.8,0.3-2.9c0-0.2-0.1-0.3-0.3-0.3h-2c-0.2,0-0.3-0.1-0.3-0.3v-0.6c0-0.2,0.1-0.3,0.3-0.3h3.5
		c0.2,0,0.3,0.1,0.3,0.3V11c0,0.9-0.1,2-0.3,3.2c0,0.2,0.1,0.3,0.3,0.3h2.5c0.2,0,0.3-0.1,0.3-0.3c0.1-0.7,0.1-1.6,0.2-2.9
		c0-0.2-0.1-0.3-0.3-0.3h-1.9c-0.2,0-0.3-0.1-0.3-0.3v-0.6c0-0.2,0.1-0.3,0.3-0.3h3.4c0.2,0,0.3,0.1,0.3,0.3c0,1.4-0.1,2.8-0.2,4
		c0,0.2,0.1,0.3,0.3,0.3h0.9c0.2,0,0.3,0.1,0.3,0.3v0.7c0,0.2-0.1,0.3-0.3,0.3h-4c-0.2,0-0.3,0.1-0.3,0.3v4.5c0,0.2-0.1,0.3-0.3,0.3
		h-0.9C68.9,21,68.8,20.8,68.8,20.7z"/>
	<path class="st0" d="M77.1,17.5v-6.7c0-0.2,0.1-0.3,0.3-0.3h5c0.2,0,0.3,0.1,0.3,0.3v6.7c0,0.2-0.1,0.3-0.3,0.3h-5
		C77.2,17.8,77.1,17.6,77.1,17.5z M80.8,11.7h-2c-0.2,0-0.3,0.1-0.3,0.3v4.2c0,0.2,0.1,0.3,0.3,0.3h2c0.2,0,0.3-0.1,0.3-0.3V12
		C81.1,11.9,81,11.7,80.8,11.7z M84.6,20.7V9.8c0-0.2,0.1-0.3,0.3-0.3h0.9c0.2,0,0.3,0.1,0.3,0.3v10.9c0,0.2-0.1,0.3-0.3,0.3h-0.9
		C84.7,21,84.6,20.8,84.6,20.7z"/>
	<path class="st0" d="M94.7,10.5c0.2,0,0.3,0.1,0.3,0.3c-0.1,1.5-0.5,2.9-1.4,4.2c-0.9,1.3-2.1,2.4-3.6,3.3c-0.1,0.1-0.3,0-0.4,0
		L89,17.7c-0.2-0.1-0.1-0.4,0.1-0.5c1-0.5,1.9-1.1,2.7-2.1c0.8-0.9,1.3-1.9,1.6-3c0-0.2-0.1-0.4-0.3-0.4h-3.4
		c-0.2,0-0.3-0.1-0.3-0.3v-0.7c0-0.2,0.1-0.3,0.3-0.3H94.7z M96.8,20.7V9.8c0-0.2,0.1-0.3,0.3-0.3h0.9c0.2,0,0.3,0.1,0.3,0.3v10.9
		c0,0.2-0.1,0.3-0.3,0.3h-0.9C96.9,21,96.8,20.8,96.8,20.7z"/>
</g>
<polygon class="st1" points="23.1,7.9 18.3,7.9 24.6,24 29.4,24 "/>
<g>
	<polygon class="st1" points="11.1,7.9 6.2,7.9 11.2,20.6 16,20.6 	"/>
</g>
<g>
	<polygon class="st1" points="17.1,7.9 12.3,7.9 17.9,22.3 22.7,22.3 	"/>
</g>
<polygon class="st0" points="28.8,18.9 24.2,7.9 24.2,2.8 28.8,2.8 "/>
</svg>
